<?xml version="1.0" encoding="utf-8" ?><svg xmlns="http://www.w3.org/2000/svg" xmlns:xlink="http://www.w3.org/1999/xlink" width="1191" height="1280" viewBox="0 0 1191 1280"><path fill="#202228" d="M0 0L1191 0L1191 344.553L1191 519.357L1191 675.417L1191 1280L0 1280L0 728.25L0 524.162L0 353.304L0 0Z"/><path fill="#213A73" d="M0 0L1191 0L1191 344.553C1167.2 343.137 1149.9 345.999 1129.96 360.521C1106.87 377.328 1096.33 398.77 1088.32 425.415C1074.36 425.884 1065.65 428.085 1055.79 438.579C1055.42 438.975 1055.05 439.375 1054.69 439.779C1051.15 438.088 1047.72 436.439 1044.04 435.045C1017.63 425.029 991.011 434.815 973.109 455.415C962.741 438.777 951.08 424.394 931.094 419.796C902.573 413.234 881.14 425.586 865.054 448.373C839.28 455.017 824.373 462.465 806.227 483.267C802.762 487.24 799.04 494.355 796.151 497.372C779.04 492.982 764.588 495.039 749.079 503.601C737.027 496.481 725.948 500.048 716.287 508.631C708.233 485.943 688.97 479.845 671.453 498.367C651.277 489.476 638.565 492.331 623.095 507.686C619.967 490.676 614.369 476.226 600.605 465.068C581.88 449.889 556.47 449.878 537.96 465.359C529.384 472.532 525.104 479.762 520.018 489.472C516.397 486.981 511.64 484.623 507.685 482.527C494.735 459.021 484.215 442.828 457.813 432.308C439.421 424.928 418.823 425.327 400.73 433.414C373.837 445.265 360.524 465.588 350.263 491.858C336.025 482.822 324.864 487.431 313.213 497.37C299.423 467.015 270.583 459.139 242.611 476.495C241.675 475.42 240.713 474.367 239.726 473.339C224.302 457.264 212.492 454.41 191.038 453.958C169.23 425.366 129.276 411.122 94.5092 419.892C83.6645 422.628 76.1271 426.585 66.4212 431.759C61.4961 392.105 42.4185 359.334 0 353.304L0 0Z"/><path fill="#324C79" d="M1088.32 425.415C1096.33 398.77 1106.87 377.328 1129.96 360.521C1149.9 345.999 1167.2 343.137 1191 344.553L1191 519.357L1191 675.417C1168.52 678.66 1154.27 687.56 1140.49 705.928C1137.23 710.319 1134.24 714.912 1131.56 719.68C1122.12 721.787 1117.83 722.892 1109.88 728.443C1095.08 716.535 1083.92 716.325 1067.99 726.678C1059.36 711.412 1049.42 699.595 1031.95 694.777C1007.08 687.917 985.657 700.313 970.89 719.478C950.377 700.686 931.647 698.484 905.718 707.491C902.002 701.957 898.264 696.233 893.569 691.481C842.544 639.823 771.172 682.069 766.828 748.158C763.342 724.193 758.801 714.929 737.258 703.322C731.157 689.045 725.381 677.044 709.937 671.256C678.991 659.657 655.899 687.008 653.452 715.536C627.249 715.645 615.608 724.141 601.875 746.279C596.509 737.36 592.791 733.28 583.22 728.495C581.085 710.547 576.115 699.601 558.197 693.194C553.643 683.42 550.137 675.45 543.229 666.958C503.399 618.003 436.776 636.262 416.825 694.23C416.607 694.858 416.395 695.487 416.19 696.119C392.017 689.032 375.794 694.637 361.572 716.009C336.686 697.233 313.696 698.054 288.332 716.112C249.572 660.094 182.119 667.257 150.711 726.239C143.829 726.979 137.616 727.545 130.973 729.691C108.53 736.94 95.0056 758.286 91.3742 780.61C74.2687 773.544 66.0344 771.72 48.4042 778.078C40.0248 751.175 28.7046 734.643 0 728.25L0 524.162L0 353.304C42.4185 359.334 61.4961 392.105 66.4212 431.759C76.1271 426.585 83.6645 422.628 94.5092 419.892C129.276 411.122 169.23 425.366 191.038 453.958C212.492 454.41 224.302 457.264 239.726 473.339C240.713 474.367 241.675 475.42 242.611 476.495C270.583 459.139 299.423 467.015 313.213 497.37C324.864 487.431 336.025 482.822 350.263 491.858C360.524 465.588 373.837 445.265 400.73 433.414C418.823 425.327 439.421 424.928 457.813 432.308C484.215 442.828 494.735 459.021 507.685 482.527C511.64 484.623 516.397 486.981 520.018 489.472C525.104 479.762 529.384 472.532 537.96 465.359C556.47 449.878 581.88 449.889 600.605 465.068C614.369 476.226 619.967 490.676 623.095 507.686C638.565 492.331 651.277 489.476 671.453 498.367C688.97 479.845 708.233 485.943 716.287 508.631C725.948 500.048 737.027 496.481 749.079 503.601C764.588 495.039 779.04 492.982 796.151 497.372C799.04 494.355 802.762 487.24 806.227 483.267C824.373 462.465 839.28 455.017 865.054 448.373C881.14 425.586 902.573 413.234 931.094 419.796C951.08 424.394 962.741 438.777 973.109 455.415C991.011 434.815 1017.63 425.029 1044.04 435.045C1047.72 436.439 1051.15 438.088 1054.69 439.779C1055.05 439.375 1055.42 438.975 1055.79 438.579C1065.65 428.085 1074.36 425.884 1088.32 425.415Z"/><path fill="#264779" fill-opacity="0.96470588" d="M0 353.304C42.4185 359.334 61.4961 392.105 66.4212 431.759C76.1271 426.585 83.6645 422.628 94.5092 419.892C129.276 411.122 169.23 425.366 191.038 453.958C212.492 454.41 224.302 457.264 239.726 473.339C240.713 474.367 241.675 475.42 242.611 476.495C270.583 459.139 299.423 467.015 313.213 497.37C324.864 487.431 336.025 482.822 350.263 491.858C360.524 465.588 373.837 445.265 400.73 433.414C418.823 425.327 439.421 424.928 457.813 432.308C484.215 442.828 494.735 459.021 507.685 482.527C511.64 484.623 516.397 486.981 520.018 489.472C525.104 479.762 529.384 472.532 537.96 465.359C556.47 449.878 581.88 449.889 600.605 465.068C614.369 476.226 619.967 490.676 623.095 507.686C638.565 492.331 651.277 489.476 671.453 498.367C688.97 479.845 708.233 485.943 716.287 508.631C725.948 500.048 737.027 496.481 749.079 503.601C734.479 511.144 723.499 527.203 717.324 542.025C710.234 538.593 703.928 535.253 696.059 533.924C671.232 529.732 652.157 542.633 638.789 562.429C617.321 540.469 592.185 535.699 568.592 558.665C555.951 570.97 552.857 586.169 551.682 603.215C539.679 598.27 533.367 597.365 521.103 602.175C510.663 582.884 494.484 569.389 471.585 580.952C457.078 588.278 451.968 603.723 450.675 619.114C442.55 620.606 439.916 621.133 432.661 624.817C426.354 605.771 419.201 590.91 400.278 581.374C388.353 575.381 374.524 574.412 361.879 578.683C340.793 585.803 327.53 604.569 323.095 625.748C305.759 619.275 299.304 620.075 284.487 631.126C280.568 627.522 278.094 625.633 273.75 622.498C273.078 607.316 269.327 590.773 257.342 580.793C229.339 557.474 201.586 572.841 190.004 602.513C173.83 596.617 158.345 595.717 142.368 603.26C135.263 606.699 128.895 611.487 123.618 617.358C109.509 589.643 98.922 579.339 66.7883 578.862C54.4524 546.713 32.5463 531.604 0 524.162L0 353.304Z"/><path fill="#264779" fill-opacity="0.96470588" d="M1088.32 425.415C1096.33 398.77 1106.87 377.328 1129.96 360.521C1149.9 345.999 1167.2 343.137 1191 344.553L1191 519.357C1190.14 519.552 1189.28 519.777 1188.43 520.03C1178.63 523.044 1174.12 531.186 1169.65 539.453C1145.17 528.068 1126.05 532.215 1109.42 553.433C1103.22 553.146 1098.71 553.498 1092.56 553.927C1090.26 548.248 1087.94 543.088 1082.3 539.898C1078.69 537.808 1074.35 537.356 1070.38 538.656C1063.43 540.958 1060.86 546.55 1058.03 552.508C1036.8 551.618 1031.9 555.01 1020.81 572.65C1001.57 564.676 989.792 573.859 980.272 589.511C969.143 583.412 960.178 579.817 947.305 578.938C930.292 577.778 911.889 581.208 898.643 592.489C890.689 557.783 876.195 536.355 839.124 533.047C827.839 514.888 817.026 503.374 796.151 497.372C799.04 494.355 802.762 487.24 806.227 483.267C824.373 462.465 839.28 455.017 865.054 448.373C881.14 425.586 902.573 413.234 931.094 419.796C951.08 424.394 962.741 438.777 973.109 455.415C991.011 434.815 1017.63 425.029 1044.04 435.045C1047.72 436.439 1051.15 438.088 1054.69 439.779C1055.05 439.375 1055.42 438.975 1055.79 438.579C1065.65 428.085 1074.36 425.884 1088.32 425.415Z"/></svg>